
<svg xmlns:rdf="http://www.w3.org/1999/02/22-rdf-syntax-ns#" xmlns="http://www.w3.org/2000/svg" xmlns:cc="http://web.resource.org/cc/" xmlns:dc="http://purl.org/dc/elements/1.1/" xmlns:svg="http://www.w3.org/2000/svg" xmlns:inkscape="http://www.inkscape.org/namespaces/inkscape" xmlns:sodipodi="http://sodipodi.sourceforge.net/DTD/sodipodi-0.dtd" xmlns:ns1="http://sozi.baierouge.fr" xmlns:xlink="http://www.w3.org/1999/xlink" id="Layer_1" xml:space="preserve" version="1.0" viewBox="0 0 224.56 682.456" inkscape:version="0.91 r13725">
<g id="g5">
	<path id="oboe1"  d="m223.22 651.26c1.37 2.56 1.59 5.51 1.05 8.86-0.65 3.34-0.25 7.7-4.79 11.12-4.68 3.31-16.02 6.62-23.04 8.53-7.2 1.8-14 3.82-19.3 1.87-5.36-2.12-9.32-6.91-12.27-14.36 1.47-0.43 2.23-2.38 2.55-5.98 0.18-3.56 0.9-4.24-1.04-15.51-2.09-11.56-6.7-33.34-10.91-52.42-4.32-19.19-9.93-43.67-14.32-61.09-4.43-17.39-6.59-24.37-11.63-42.34-5.08-18.18-11.13-39.49-18.44-65.3-2.16 0.68-3.92 0.68-5.29 0-1.47-0.65-2.59-1.69-3.06-4.11-0.57-2.59-0.39-6.3 0.15-11.26-2.38 1.47-3.963 1.08-4.611-1.19-0.72-2.41-0.648-6.45 0.36-12.64-2.628-0.25-3.96-0.86-4.428-1.69-0.468-0.9 1.08-2.74 1.872-3.42 0.828-0.76 1.692-1.15 2.88-1.04l-0.504-4.25c-0.72-0.22-1.008-0.72-1.008-1.37 0-0.72 0.288-1.69 1.008-2.92l-4.104-18.43c-2.592-0.61-4.356-1.73-5.292-3.06-0.936-1.48-0.72-3.89-0.324-5.29 0.324-1.55 1.116-2.56 2.376-3.42-3.168-12.78-5.436-21.21-6.66-25.27-1.296-4.07-1.692-4-1.044 0.61-4.212 1.11-7.056 1.51-8.532 1.19-1.548-0.4-1.764-2.45-0.36-3.39 1.404-1.01 4.104-1.87 8.532-2.59-2.916-1.84-4.572-3.71-5.112-5.62-0.54-1.94 0.036-3.88 1.872-5.97-2.016-9.94-3.384-15.7-4.248-17.43-0.792-1.69-0.288 5.69-0.864 7.02-0.828 1.23-1.368 2.96-3.42 0.18-2.016-2.98-6.156-9.64-8.532-17.6-2.556-8.14-5.58-21.49-6.3-30.2-0.756-8.72-0.18-15.81 1.872-21.68l-3.6-11.95c-0.72 1.3-1.728 1.98-2.736 2.05-1.26 0.11-2.556-0.46-3.744-1.87-1.08-1.65-2.268-6.12-2.736-7.7-0.504-1.66-0.612-2.27-0.324-1.98-1.332-0.4-2.196-1.84-2.592-3.93-0.468-2.19-0.468-5.22 0-9.07-2.376-2.52-3.96-5.11-4.752-7.49-0.828-2.52-0.792-5.97-0.18-7.16 0.576-1.15 1.62-1.15 3.42 0.14l-2.232-10.72c-3.132 1.54-5.004 1.72-5.616 0.68-0.648-1.12-0.072-3.46 1.872-7.16l-1.368-4.65c-2.268-0.14-3.924-0.86-5.112-2.01-1.296-1.26-2.16-3.5-2.052-5.15 0.072-1.66 1.08-3.24 2.88-4.75l-5.616-23.22c-0.648 0.82-1.08 0.54-1.692-0.87-0.612-1.51-2.16-5.69-1.728-7.52 0.36-1.84 1.62-2.92 3.924-3.39l-13.213-46.684c-2.052-1.512-3.42-3.096-4.104-4.608-0.792-1.656-0.9-3.384-0.324-4.788 0.504-1.476 1.692-2.628 3.564-3.744-0.828-1.44-1.044-2.592-0.504-3.6 0.468-1.044 1.656-1.944 3.564-2.556l-3.24-10.044 1.368-0.18-11.412-35.172 7.668-0.684 7.524 34.812 2.016-0.36 1.548 10.116c1.404 0.54 2.304 1.008 3.096 1.692 0.684 0.612 1.08 1.296 1.188 2.052 2.052-0.216 3.816 0.072 5.436 0.864 1.548 0.684 3.42 2.124 4.104 3.924 0.612 1.764 0.396 4.284-0.504 7.164 1.152 1.08 2.052 2.376 2.556 3.744 0.36 1.296 0.108 3.528 0.36 4.608 0.216 1.08 0.72 1.98 1.368 1.872 0.576-0.216 1.62-3.132 2.556-3.06 0.936 0.108 2.088 1.944 3.06 3.42 0.828 1.368 0-2.304 2.376 4.932 2.34 7.308 6.228 19.728 11.808 38.23l2.808 2.92c2.268 0.25 3.672 1.26 4.752 2.73 0.936 1.37 0.18 2.96 1.044 6.3 0.756 3.35 2.052 8.07 3.744 14.01 1.656 5.83 3.6 12.78 5.976 20.99l-4.104 0.5-11.592-35.82-2.736 2.05 3.744 12.28c1.332 0.14 2.412 0.75 3.096 2.23 0.684 1.44 0.972 3.35 1.008 6.12l9.9 30.2c1.98 0.72 3.024 1.59 3.42 2.6 0.324 1-0.18 2.08-1.368 3.38l11.808 34.74-2.376 2.74c2.232 0.57 3.204 1.44 2.916 2.73-0.36 1.3-1.908 2.85-4.788 4.93 1.548 0.8 2.412 2.06 2.736 3.78 0.288 1.7-0.108 3.75-1.044 6.3l2.916 5.48c2.592-2.31 5.04-3.78 7.344-4.43 2.232-0.72 4.932-0.97 6.302 0.5 1.26 1.41 2.84 7.09 1.55 8.17-1.44 0.94-7.924-2.66-9.724-2.19-1.872 0.47-2.232 1.91-1.224 4.75 2.088-0.76 3.924-0.68 5.652 0.36 1.656 0.97 3.136 2.84 4.426 5.62 1.51-3.46 3.49-2.2 6.34 3.78 2.81 6.01 6.08 16.56 10.22 32.07l-8.35 3.6 8.03 33.55c1.55 0.8 2.66 1.88 3.06 3.24 0.36 1.37 0.29 2.92-0.51 4.79l2.38 7.53c1.22 1.26 2.12 2.44 2.41 3.56 0.29 1.04 0.11 2.02-0.54 2.92l3.24 9.03c1.55 1.23 2.63 2.59 3.1 4.11 0.39 1.47 0.32 3.02-0.36 4.78 0.83 3.1 2.3 7.27 4.28 12.96 2.02 5.65 5.8 15.81 7.74 20.6 1.77 4.57 2.77 4.86 3.6 6.84 0.87 1.94 1.23 3.24 1.37 4.42 1.69 0.51 2.56 1.08 2.74 1.73 0.1 0.65-0.58 1.33-2.06 2.2-0.03 3.67 0.58 6.84 1.55 9.9 0.97 2.99 2.45 5.61 4.43 8.03 2.09 0.43 3.13 1.11 3.42 2.05 0.22 0.97-0.47 1.98-2.05 3.42-0.22 1.62 0.07 3.27 1.01 5.11 0.9 1.76 3.34 3.6 4.42 5.65 0.87 2.09 1.41 4.07 1.23 6.48 2.3 0.11 3.27 0.58 3.06 1.69-0.25 1.08-1.73 2.52-4.43 4.61 1.58 3.92 2.56 6.95 3.06 9.07 0.4 2.09 0.29 3.28-0.32 3.56l11.08 33.45c1.48 0.79 2.24 1.69 2.56 2.55 0.18 0.9-0.07 1.77-1.04 2.74 1.58 3.67 2.95 7.06 3.96 10.44 1.04 3.28 1.73 6.44 2.19 9.36-1.51 1.01-2.52 1.76-2.88 2.41-0.43 0.58-0.21 0.97 0.51 1.19l3.56 15.19c1.84 0.18 2.85 0.69 3.42 1.37 0.4 0.61-0.61 1.8-0.5 2.73 0.03 0.72 1.15 1.34 1.01 2.38-0.15 1.08-0.87 2.34-2.02 3.92 2.34 7.49 4.93 15.84 8.17 25.74 3.2 9.76 7.31 24.3 10.77 32.94 3.2 8.5 6.22 13.94 9.21 18.25 2.95 4.25 5.9 6.7 8.71 7.35l0.07-0.03z"/>
	<path id="oboe2"  d="m166.7 567.49l0.44 3.67c0.5 0.18 1.04-0.22 1.62-1.04 0.5-0.87 1.04-2.16 1.62-4.04-1.23 0.47-2.45 0.94-3.68 1.41z"/>
	<polygon id="oboe3"  points="165.08 563.64 169.76 562.41 167.32 560.4"/>
	<path id="oboe4"  d="m127.61 439.98l-1.84 0.57c-0.11 1.08-0.07 2.09 0.11 3.03 0.18 0.82 0.29 1.58 0.72 2.26l2.45-0.54c-0.69-0.68-1.08-1.44-1.33-2.26-0.29-0.94-0.33-1.91-0.11-3.06z"/>
	<path id="oboe5"  d="m129.37 448.15c0 1.04 0.29 2.05 0.72 2.88 0.4 0.83 0.94 1.47 1.77 2.09l-2.67 0.5c-1.01-1.22-1.76-2.3-2.12-3.1-0.47-0.86-0.58-1.54-0.33-2.05 0.87-0.11 1.73-0.21 2.63-0.32z"/>
		<path id="oboe6" d="m151.76 539.41c0.94-0.15 2.13-0.43 3.86-1.01 1.69-0.65 3.67-1.44 6.08-2.52l2.02 8.82c-2.78 0.68-5.01 1.37-7.09 1.76-2.06 0.36-3.75 0.72-5.08 0.8 0.07-2.6 0.14-5.22 0.21-7.85z"/>
		<line id="oboe7" stroke-linejoin="round" x1="129.34" y2="398.5" x2="124.51" stroke="#000000" stroke-linecap="round" stroke-miterlimit="10" y1="398.43" stroke-width=".036" fill="none"/>
		<path id="oboe8" d="m119.98 392.64c-0.22 0.36 1.83 1.8 1.87 2.8-0.11 1.01-1.62 2.42-1.77 3.24-0.1 0.65 0.58 1.52 1.37 1.19 0.65-0.47 2.7-2.12 2.95-3.31 0.04-1.3-0.97-3.17-1.76-3.82-0.79-0.72-2.56-0.57-2.66-0.1z"/>
		<path id="oboe9" d="m107.81 380.72c-0.22 0.36 1.83 1.8 1.87 2.81-0.11 1.01-1.62 2.41-1.76 3.24-0.11 0.65 0.57 1.51 1.36 1.19 0.65-0.47 2.7-2.13 2.96-3.32 0.03-1.29-0.98-3.16-1.77-3.81-0.79-0.72-2.55-0.58-2.66-0.11z"/>
		<path id="oboe10" d="m124.76 372.19c0.08-0.58-2.12-1.59-2.16-2.59-0.21-1.05 1.41-2.74 1.41-3.42-0.07-0.8-0.79-1.52-1.48-1.05-0.83 0.43-2.52 2.34-2.59 3.64-0.04 1.19 1.3 2.99 2.2 3.6 0.79 0.5 2.44 0.25 2.62-0.18z"/>
		<path id="oboe11" d="m121.09 353.79c-0.03-0.39-1.55-1.22-1.62-1.94-0.11-0.83 0.94-2.05 1.05-2.56-0.11-0.61-0.62-1.15-1.12-0.79-0.5 0.18-1.98 1.87-1.94 2.74-0.11 0.93 1.04 2.16 1.65 2.7 0.58 0.25 1.84 0.25 1.98-0.15z"/>
		<path id="oboe12" d="m115.8 339.1c-0.11-0.57-2.23-1.33-2.48-2.26-0.29-1.05 1-2.85 0.97-3.6-0.18-0.83-1.05-1.34-1.62-0.83-0.72 0.5-2.16 2.66-2.09 3.96 0.11 1.29 1.69 2.66 2.66 3.27 0.9 0.4 2.45-0.1 2.56-0.54z"/>
		<path id="oboe13" d="m104.14 302.92c-0.04-0.57-2.45-1.33-2.67-2.26-0.36-1.12 1.15-2.78 1.05-3.57-0.22-0.83-1.08-1.33-1.77-0.83-0.79 0.47-2.338 2.7-2.266 3.93 0.072 1.19 1.906 2.7 2.876 3.27 0.9 0.4 2.7-0.1 2.78-0.54z"/>
		<path id="oboe14" d="m83.472 236.86c-0.072-0.39-1.728-0.93-1.908-1.62-0.216-0.86 0.72-1.94 0.72-2.55-0.108-0.54-0.792-1.01-1.224-0.58-0.612 0.36-1.656 1.8-1.62 2.81 0 0.83 1.332 1.98 2.052 2.34 0.648 0.32 1.908-0.18 1.98-0.4z"/>
		<path id="oboe15" d="m90.744 266.1c0 0.43 2.124 0.9 2.484 1.8 0.288 0.86-0.9 2.37-0.648 3.13 0.18 0.61 0.936 1.04 1.584 0.61 0.468-0.58 1.8-2.56 1.656-3.56-0.288-1.05-1.836-2.38-2.7-2.63-0.864-0.29-2.484 0.07-2.376 0.65z"/>
		<path id="oboe16" d="m105.97 398.32c-0.14 0.36 1.55 1.52 1.62 2.49-0.14 0.83-1.44 2.16-1.55 2.88-0.07 0.61 0.51 1.33 1.19 1.04 0.58-0.36 2.38-1.98 2.63-2.91 0.11-1.19-0.97-2.78-1.58-3.39-0.69-0.65-2.2-0.54-2.31-0.11z"/>
		<path id="oboe17" d="m108.49 416.68c-0.11 0.26 1.26 1.19 1.33 1.98-0.18 0.72-1.11 1.7-1.26 2.34-0.03 0.54 0.29 1.01 0.98 0.83 0.43-0.39 1.98-1.51 2.12-2.37 0.04-0.94-0.76-2.27-1.26-2.74-0.72-0.58-1.73-0.36-1.91-0.04z"/>
		<path id="oboe18" d="m81.6 221.2c-0.072-0.39-1.728-0.93-1.908-1.62-0.216-0.86 0.72-1.94 0.72-2.55-0.108-0.54-0.792-1.01-1.224-0.58-0.612 0.36-1.656 1.8-1.62 2.81 0 0.83 1.332 1.98 2.052 2.34 0.648 0.32 1.908-0.18 1.98-0.4z"/>
		<path id="oboe19" d="m72.348 201.3c0-0.4-1.944-1.05-2.088-1.8-0.252-0.87 0.792-2.27 0.792-2.81-0.144-0.61-0.864-1.15-1.332-0.65-0.504 0.36-1.98 2.09-1.8 3.1 0.036 0.93 1.44 2.12 2.268 2.59 0.684 0.32 2.052-0.15 2.16-0.43z"/>
		<path id="oboe20" d="m69.108 187.94c-0.036-0.4-1.8-0.94-1.944-1.62-0.252-0.86 0.792-1.94 0.756-2.56-0.18-0.61-0.792-1-1.26-0.61-0.612 0.43-1.656 1.84-1.62 2.85 0 0.82 1.332 1.98 2.052 2.34 0.72 0.32 1.908-0.18 2.016-0.4z"/>
		<path id="oboe21" d="m66.804 172.6c-0.072-0.43-2.16-1.29-2.376-2.05-0.252-0.9 0.936-2.55 0.936-3.17-0.216-0.75-0.972-1.18-1.584-0.75-0.684 0.47-2.052 2.34-2.016 3.53 0.072 1.11 1.62 2.37 2.556 2.95 0.864 0.29 2.34-0.07 2.484-0.51z"/>
</g>
<metadata><rdf:RDF><cc:Work><dc:format>image/svg+xml</dc:format><dc:type rdf:resource="http://purl.org/dc/dcmitype/StillImage"/><cc:license rdf:resource="http://creativecommons.org/licenses/publicdomain/"/><dc:publisher><cc:Agent rdf:about="http://openclipart.org/"><dc:title>Openclipart</dc:title></cc:Agent></dc:publisher><dc:title>Oboe</dc:title><dc:date>2006-10-17T10:43:57</dc:date><dc:description>Silhouette of an oboe.</dc:description><dc:source>https://openclipart.org/detail/699/oboe-by-gerald_g</dc:source><dc:creator><cc:Agent><dc:title>Gerald_G</dc:title></cc:Agent></dc:creator><dc:subject><rdf:Bag><rdf:li>black &amp; white</rdf:li><rdf:li>instrument</rdf:li><rdf:li>music</rdf:li><rdf:li>oboe</rdf:li><rdf:li>remix problem</rdf:li><rdf:li>silhouette</rdf:li></rdf:Bag></dc:subject></cc:Work><cc:License rdf:about="http://creativecommons.org/licenses/publicdomain/"><cc:permits rdf:resource="http://creativecommons.org/ns#Reproduction"/><cc:permits rdf:resource="http://creativecommons.org/ns#Distribution"/><cc:permits rdf:resource="http://creativecommons.org/ns#DerivativeWorks"/></cc:License></rdf:RDF></metadata></svg>
